<?xml version="1.0" encoding="utf-8"?>
<!-- Generator: Adobe Illustrator 24.0.1, SVG Export Plug-In . SVG Version: 6.00 Build 0)  -->
<svg version="1.1" id="Camada_1" xmlns="http://www.w3.org/2000/svg" xmlns:xlink="http://www.w3.org/1999/xlink" x="0px" y="0px"
	 viewBox="0 0 28 22" style="enable-background:new 0 0 28 22;" xml:space="preserve">
<g transform="translate(0.000000,352.000000) scale(0.100000,-0.100000)">
	<path d="M135.1,3507c-9.3-4.7-9.5-16.7-0.6-35.7c3.2-6.9,4-7.9,6.1-7.9c2,0,11.9,5,18.1,9.2c8,5.3,11.5,10,12,16
		c0.4,6-2.2,10.5-7.5,12.9c-2.7,1.2-7.7,1.5-9.5,0.5c-0.9-0.5-1.2-0.3-2.5,1.5C147.8,3508.2,140.6,3509.8,135.1,3507z M144.5,3499.6
		c0.8-0.8,1.5-2.3,1.7-3.6c0.4-2.7,2.3-4.8,4.1-4.8c0.7,0,2.1,0.7,3.1,1.5c4,3.3,5.5,3.4,8.3,0.8c3.7-3.5,0.2-10-8.6-15.4
		c-1.2-0.7-4.1-2.4-6.4-3.6l-4.2-2.3l-2.1,4.5c-4.1,8.9-5.7,16-4.7,20.2C136.7,3500.6,141.8,3502.2,144.5,3499.6z"/>
	<path d="M102.2,3468c-5.4-2.8-9.9-10.7-12.7-22.6c-0.6-2.3-1.1-4.3-1.2-4.4c-0.1-0.1-5.3-0.9-11.5-1.8c-6.2-0.9-11.9-1.8-12.5-1.9
		c-0.9-0.2-1.5,0.4-2.7,2.3c-2.4,3.8-7.9,9.4-11.2,11.3c-9.3,5.6-17.5,1.8-21.6-9.9c-1.4-3.9-3-12.9-5.9-31.7
		c-1.2-7.9-2.3-15.1-2.5-16c-0.3-1.7-0.3-1.7-2.9-1.2c-3.2,0.5-14.3,0.6-15.1,0.1c-2.1-1.4-1.9-4.9,0.2-6c0.5-0.3,4.3-0.6,8.4-0.8
		c4.1-0.2,7.6-0.4,7.7-0.6c0.2-0.2,0-2.8-0.4-5.9l-0.7-5.6l-4.1-0.3c-5.3-0.4-10.3-1.8-11.2-3c-1-1.4-0.9-3.6,0.3-4.7
		c1.2-1.1,2.6-1.1,6.9-0.1c1.8,0.4,4.1,0.8,5,0.8c2.2,0,2.1,0.5,0.4-12.2c-1.3-9.5-1.3-9.8-0.3-11.1c1.2-1.7,3.3-2,4.8-0.7
		c1.1,0.9,1.4,2.3,2.7,12.1c0.8,6.1,1.5,11.2,1.6,11.3c0.4,0.5,4.2-0.7,7-2.4c4.3-2.7,6.6-2.4,7.6,0.9c0.8,2.4-4,6.1-10.2,7.9
		c-2.8,0.8-3.1,1-3.1,2.3c0,2,1,8.2,1.3,8.6c0.4,0.4,4.5-1.3,6.9-2.9c2.7-1.7,5-1.7,6.2,0c0.4,0.8,0.8,1.9,0.6,2.5
		c-0.2,1.7-4,4.4-8.7,6.2c-2.2,0.8-4,1.6-4.1,1.6c-0.3,0.2,5.2,35.2,6.6,41.9c3.2,15.7,8.4,18.1,17.9,8.4c1.8-1.9,4.1-4.9,4.9-6.6
		c1.8-3.6,2.2-4,4.4-4c3.2-0.1,31.4,4.4,32.6,5.2c0.9,0.5,1.3,1.6,1.8,4.7c1.6,9.4,5,18,8.1,20.7l1.7,1.4l1.5-1.1
		c4.7-3.3,18.9-22,25.6-33.6l1.5-2.5l-1.6-3.5c-3.6-8-9.7-30.9-12.2-45.7c-4.3-25.6-2.7-33.7,7.9-38.7c2.6-1.2,3.7-1.4,8.7-1.4
		c4.4,0,6.6,0.3,9.5,1.2c14.6,4.6,20.8,16.3,17.9,33.7c-2.1,12.5-6.8,25.5-15.3,42.2c-3,6.1-5.6,11.2-5.6,11.3
		c0,0.8,4.4,1.8,7.5,1.8c4.3,0,4.5,0.2,7.1,5.4c4.3,8.8,11.5,18,17.4,22.5c7.6,5.7,14.4,7.7,24.8,7.1c11.5-0.6,21.7-4.7,28.5-11.5
		c4.7-4.7,6.3-7.4,8.9-15.1c2.1-6.3,5.2-18.6,4.8-19.1c-0.1-0.1-3.7-0.6-8.1-1.1c-14.2-1.5-24.6-3.1-25.8-3.8c-1.6-1-1.7-4-0.2-5.4
		c1.1-1,1.4-1,10.5,0.2c5.1,0.6,10.1,1.4,11,1.5l1.7,0.3l-0.3-5.9c-0.3-7,0.3-11.1,2.6-15.8c2.1-4.2,5.7-7.3,10.3-8.7
		c2.2-0.7,3.2-1.2,3.2-1.8c0-0.5-0.6-3.3-1.4-6.2c-1.6-6.1-5.3-14.1-8.1-17.3l-1.9-2.2l-4.2,0.1c-10.8,0.1-17,3.7-26.3,15.4
		c-5.5,6.9-13.4,19.6-13.4,21.6c0,0.3,1.2,1,2.8,1.7c2.8,1.4,3.7,2.4,3.7,4.3c0,1.5-1.8,3.3-3.3,3.3c-3.5,0-11.3-5.7-14.5-10.7
		c-2-3.1-2.1-3.8-0.5-5.7c1.4-1.8,3.4-1.8,5.2,0c0.8,0.8,1.4,1.3,1.5,1.2c0.1-0.1,0.8-1.4,1.5-2.9c3.9-7.7,12.7-19.7,19.2-25.8
		c3.4-3.2,5.5-4.7,10-6.9c8.9-4.4,13.3-8.9,15.5-15.9c1.2-3.6,3.5-6.2,7.3-8c3.1-1.6,3.9-1.7,7.3-1.5c4.5,0.2,7.5,1.9,9.5,5.4
		c3,5.1,2.9,15-0.1,21l-1.5,2.9l3.2,2.5c10.8,8.2,20.5,32,20.6,50.6c0,5.8-0.1,6.7-1.3,8.7c-2.5,4.5-7.4,5.7-20.7,5.3l-7.7-0.3
		l-1.2,5.8c-4.9,22.6-10.6,32.4-23.2,39.7c-12.8,7.3-31.1,9.3-43.4,4.7c-10.4-3.9-22-15.7-29.6-29.8l-1.5-2.8l-3.4-0.3
		c-1.8-0.2-4.4-0.8-5.7-1.5c-1.4-0.6-2.4-1.1-2.5-1c-0.1,0.1-1.4,2.2-3,4.7c-12.9,20.4-25.4,34.1-30.9,34.1
		C104.4,3468.9,103.1,3468.5,102.2,3468z M147.3,3399.2c10.6-23.8,12.9-40.8,6.7-49.3c-3-4.2-8.9-7-15.5-7.5
		c-6.1-0.5-10.5,1.5-12.6,5.6c-2.2,4.3-0.6,19.8,4.1,40.3c2.1,9.2,6.1,23.4,7.5,26.8l0.9,2.2l2.7-5
		C142.5,3409.4,145.3,3403.6,147.3,3399.2z M266.1,3374.1c0-1.1-2.8-6.8-5.1-10.3c-2.9-4.3-7-8.2-10.7-10.1
		c-1.4-0.7-2.7-1.3-2.8-1.3c-0.2,0,0.6,1.8,1.7,4.1c1,2.3,2.7,7.3,3.6,11.1l1.7,7h5.8C263.6,3374.6,266.1,3374.4,266.1,3374.1z
		 M249.7,3343.7c3.4-3.7,3.6-14.1,0.3-16.7c-2.4-1.8-6.6-1.2-8.9,1.5c-0.5,0.6-1.5,2.5-2.1,4.3c-0.6,1.7-1.9,4.5-3,6
		c-1,1.6-1.9,3-1.9,3.1c0,0.2,0.9,0.3,2.1,0.3c1.7,0,2.3-0.3,3.5-1.8c1.6-2,2.8-5,3.3-7.9c0.2-1,0.8-2.3,1.2-2.9
		c1.1-1.3,3.5-1.2,4.8,0.1c1.4,1.6,0.8,6.8-1.3,11c-1.2,2.4-1.5,3.5-1,3.7C247.8,3345.1,248.5,3344.9,249.7,3343.7z"/>
	<path d="M217.8,3438.8c-2.4-1.4-3.8-4.3-4.1-8.7c-0.3-4.4,0.4-7.1,2.4-9.5c1.7-2.1,5.3-2.3,7-0.4c2.3,2.5,3.1,4.8,3.1,9
		c0,4.8-1.4,8.1-4,9.5C220.3,3439.8,219.7,3439.8,217.8,3438.8z"/>
	<path d="M186.1,3437.8c-2.1-2.1-2.9-4.7-2.9-9c0-4.6,1.3-7.8,3.7-9.3c2.1-1.2,3.4-1.2,5.1,0.2c4.4,3.5,5.2,13.2,1.3,17.5
		C191.3,3439.6,188.2,3439.9,186.1,3437.8z"/>
	<path d="M108.7,3420.4c-2.8-4.3-1.2-15.1,2.4-17.1c4-2.1,6.3,2.4,5.4,9.9C115.5,3420.1,111.2,3424.2,108.7,3420.4z"/>
	<path d="M89,3415.5c-1.4-1.7-1.4-1.4-0.1-5.5c1.2-3.8,1.4-8.2,0.4-9.2c-0.4-0.4-1.4-0.6-2.2-0.6c-1.5,0-3.3,1.4-5.9,4.8
		c-1.8,2.2-5,1.5-5.8-1.4c-1.2-4.1-1.8-5-3.3-5.8c-3-1.6-4.2,0.3-4.7,7.2c-0.4,5-1.2,6.6-3.7,6.6c-2.1,0-3.5-1.9-3.5-4.8
		c0-3.6,1.4-9.5,2.8-12.1c1.9-3.4,3.7-4.5,7.4-4.4c3.5,0.1,6.1,1.2,8.3,3.6c1.5,1.5,1.6,1.5,2.8,0.8c2.4-1.6,5.5-2.1,8.2-1.4
		c6.5,1.6,8.8,8.1,6.3,17.8c-0.5,2.2-1.5,4.4-2,5C92.7,3417.4,90.4,3417.2,89,3415.5z"/>
	<path d="M43.6,3412.1c-2.2-1.4-2.9-7.6-1.5-12.5c2.2-7.3,7.7-8.1,8.7-1.3C52,3406.3,47.6,3414.7,43.6,3412.1z"/>
	<path d="M222.3,3379.7c-2.5-1.7-1-6.2,2.2-6.2c3,0,4.4,4.2,2.1,6.1C225.1,3380.8,223.9,3380.9,222.3,3379.7z"/>
	<path d="M231.2,3369.7c-1.7-2.4-0.3-5.3,2.6-5.3c2.1,0,3.6,1.4,3.6,3.4C237.4,3370.7,232.9,3372.1,231.2,3369.7z"/>
	<path d="M218.6,3366.7c-2.3-2.3-0.8-5.6,2.5-5.6c3,0,4.3,3.8,2.2,6C221.8,3368.5,220.2,3368.4,218.6,3366.7z"/>
</g>
</svg>
