<?xml version="1.0" standalone="no"?>
<!DOCTYPE svg PUBLIC "-//W3C//DTD SVG 20010904//EN"
 "http://www.w3.org/TR/2001/REC-SVG-20010904/DTD/svg10.dtd">
<svg version="1.0" xmlns="http://www.w3.org/2000/svg"
 width="70px" height="62px" viewBox="0 0 516.000000 352.000000"
 preserveAspectRatio="xMidYMid meet">

<g transform="translate(0.000000,352.000000) scale(0.100000,-0.100000)"
fill="#000000" stroke="none">
<path d="M2482 3484 c-172 -86 -176 -309 -12 -659 60 -128 73 -145 112 -145
37 0 220 92 334 169 148 98 213 185 222 296 8 110 -40 194 -138 239 -49 22
-143 27 -175 9 -16 -9 -23 -5 -46 27 -62 86 -195 115 -297 64z m173 -138 c14
-15 27 -42 31 -67 8 -49 42 -89 76 -89 13 0 39 13 58 28 73 60 101 62 153 14
69 -65 3 -184 -158 -284 -22 -13 -75 -44 -118 -67 l-78 -43 -38 84 c-75 164
-106 296 -87 373 18 71 112 100 161 51z"/>
<path d="M1875 2764 c-100 -52 -183 -198 -235 -418 -11 -43 -20 -80 -22 -81
-2 -1 -97 -16 -213 -34 -115 -17 -219 -33 -230 -36 -16 -3 -27 7 -50 43 -44
70 -146 173 -207 209 -172 104 -324 34 -398 -182 -25 -72 -56 -239 -109 -585
-23 -146 -43 -279 -46 -296 -5 -31 -5 -31 -53 -23 -60 10 -264 11 -278 1 -38
-25 -36 -90 3 -110 10 -5 80 -12 156 -14 76 -3 140 -8 143 -11 3 -3 0 -52 -8
-109 l-13 -103 -75 -6 c-97 -8 -191 -34 -207 -56 -19 -25 -16 -67 5 -86 22
-20 48 -21 127 -2 33 8 75 15 93 15 40 0 39 9 7 -225 -24 -175 -24 -181 -6
-205 22 -31 61 -37 89 -13 20 16 25 42 49 223 15 113 28 207 29 209 8 10 78
-13 129 -44 80 -49 121 -44 140 16 15 45 -73 113 -188 146 -51 14 -57 19 -57
42 0 37 18 152 24 158 7 8 84 -24 128 -53 49 -32 93 -32 114 0 8 14 14 35 12
47 -4 32 -73 82 -160 115 -40 15 -74 29 -76 30 -6 4 96 649 122 774 59 289
155 334 330 155 34 -35 75 -90 90 -122 33 -66 40 -73 81 -73 59 -1 580 82 602
96 16 10 24 30 33 86 29 173 92 333 150 382 l32 26 28 -20 c86 -61 349 -407
473 -621 l27 -46 -29 -64 c-66 -147 -180 -571 -226 -844 -80 -472 -49 -623
145 -714 48 -23 68 -26 160 -26 81 0 121 5 175 22 269 85 384 301 330 623 -38
230 -125 470 -282 779 -56 113 -103 206 -103 208 0 14 81 33 138 33 80 0 84 3
132 100 80 162 213 333 322 415 140 106 266 142 458 132 213 -12 400 -87 526
-212 87 -86 117 -136 164 -278 39 -117 96 -344 88 -352 -2 -2 -69 -11 -149
-20 -263 -28 -454 -57 -476 -71 -30 -19 -31 -73 -3 -99 20 -18 26 -18 193 4
94 12 186 25 204 28 l32 5 -6 -109 c-6 -130 6 -205 48 -291 38 -78 106 -135
190 -160 41 -12 59 -22 59 -33 0 -9 -11 -61 -25 -115 -29 -113 -98 -260 -149
-319 l-35 -40 -78 1 c-200 2 -314 69 -486 284 -102 127 -247 361 -247 398 0 5
23 19 51 32 52 25 69 44 69 79 0 27 -34 61 -61 61 -65 0 -209 -106 -268 -198
-37 -57 -38 -71 -10 -106 26 -33 62 -34 96 0 14 14 26 24 28 22 1 -2 14 -25
28 -53 72 -143 235 -363 354 -476 62 -59 101 -86 185 -128 164 -81 246 -165
287 -293 22 -66 65 -114 135 -148 58 -29 72 -32 134 -28 84 4 138 35 176 100
55 95 54 277 -2 388 l-27 54 60 46 c200 151 378 590 380 935 0 108 -2 124 -24
161 -47 83 -137 106 -383 97 l-143 -6 -23 108 c-90 417 -196 599 -429 733
-236 135 -574 172 -802 86 -192 -72 -406 -289 -546 -550 l-27 -51 -62 -5 c-34
-3 -81 -15 -105 -27 -25 -11 -45 -20 -46 -18 -1 1 -26 40 -56 87 -239 377
-469 630 -571 630 -13 0 -36 -7 -53 -16z m832 -1271 c196 -440 238 -753 123
-911 -56 -77 -164 -130 -286 -139 -112 -9 -194 27 -233 103 -40 80 -11 366 75
744 39 169 113 432 139 494 l17 40 49 -92 c28 -50 79 -157 116 -239z m2193
-463 c0 -21 -52 -126 -95 -190 -53 -80 -129 -152 -197 -186 -26 -13 -49 -24
-52 -24 -3 0 11 34 31 76 19 42 49 134 66 205 l32 129 108 0 c62 0 107 -4 107
-10z m-302 -562 c63 -68 66 -260 5 -308 -44 -34 -121 -22 -165 27 -10 11 -27
46 -38 79 -11 32 -36 83 -55 111 -19 29 -35 55 -35 58 0 3 17 5 39 5 32 0 43
-6 64 -34 29 -37 52 -93 61 -145 4 -19 14 -43 23 -53 21 -24 65 -23 88 2 26
29 15 125 -24 203 -22 45 -27 64 -18 69 20 13 32 9 55 -14z"/>
<path d="M4008 2225 c-45 -25 -71 -79 -76 -160 -5 -82 7 -131 45 -175 32 -39
98 -43 130 -7 42 46 57 89 57 167 0 88 -26 150 -74 175 -35 18 -47 18 -82 0z"/>
<path d="M3424 2205 c-38 -38 -54 -87 -54 -167 0 -85 24 -144 69 -171 38 -22
63 -22 95 4 82 65 96 243 24 324 -39 45 -95 49 -134 10z"/>
<path d="M1994 1885 c-52 -79 -23 -278 45 -315 73 -39 117 44 99 183 -17 127
-98 201 -144 132z"/>
<path d="M1631 1794 c-25 -32 -25 -25 -1 -102 22 -71 26 -152 8 -170 -7 -7
-25 -12 -41 -12 -28 0 -61 26 -109 88 -33 41 -92 27 -108 -26 -23 -75 -33 -93
-61 -107 -55 -29 -77 5 -86 133 -7 93 -23 122 -68 122 -39 0 -65 -36 -65 -89
0 -67 26 -176 52 -223 35 -63 69 -83 136 -82 64 1 112 22 154 67 27 28 29 28
51 14 44 -29 102 -39 152 -26 120 30 163 150 116 328 -10 40 -27 81 -37 92
-25 28 -68 24 -93 -7z"/>
<path d="M793 1732 c-40 -26 -54 -141 -28 -230 40 -135 142 -150 161 -24 22
147 -59 301 -133 254z"/>
<path d="M4092 1134 c-47 -32 -18 -114 40 -114 55 0 81 77 38 112 -27 22 -49
23 -78 2z"/>
<path d="M4256 948 c-32 -45 -6 -98 48 -98 39 0 66 26 66 62 0 55 -83 81 -114
36z"/>
<path d="M4024 894 c-43 -42 -15 -104 46 -104 55 0 80 70 40 110 -27 27 -56
25 -86 -6z"/>
</g>
</svg>
