<?xml version="1.0" encoding="utf-8"?>
<!-- Generator: Adobe Illustrator 24.0.1, SVG Export Plug-In . SVG Version: 6.00 Build 0)  -->
<svg version="1.1" id="Camada_1" xmlns="http://www.w3.org/2000/svg" xmlns:xlink="http://www.w3.org/1999/xlink" x="0px" y="0px"
	 viewBox="0 0 800 22" style="enable-background:new 0 0 800 22;" xml:space="preserve">
<style type="text/css">
	.st0{fill:#B33E3E;}
</style>
<g transform="translate(0.000000,352.000000) scale(0.100000,-0.100000)">
	<path class="st0" d="M134,3505.2c-9.3-4.7-9.5-16.7-0.6-35.7c3.2-6.9,4-7.9,6.1-7.9c2,0,11.9,5,18.1,9.2c8,5.3,11.5,10,12,16
		c0.4,6-2.2,10.5-7.5,12.9c-2.7,1.2-7.7,1.5-9.5,0.5c-0.9-0.5-1.2-0.3-2.5,1.5C146.7,3506.4,139.5,3507.9,134,3505.2z M143.4,3497.7
		c0.8-0.8,1.5-2.3,1.7-3.6c0.4-2.7,2.3-4.8,4.1-4.8c0.7,0,2.1,0.7,3.1,1.5c4,3.3,5.5,3.4,8.3,0.8c3.7-3.5,0.2-10-8.6-15.4
		c-1.2-0.7-4.1-2.4-6.4-3.6l-4.2-2.3l-2.1,4.5c-4.1,8.9-5.7,16-4.7,20.2C135.6,3498.8,140.7,3500.4,143.4,3497.7z"/>
	<path class="st0" d="M101.1,3466.2c-5.4-2.8-9.9-10.7-12.7-22.6c-0.6-2.3-1.1-4.3-1.2-4.4s-5.3-0.9-11.5-1.8
		c-6.2-0.9-11.9-1.8-12.5-1.9c-0.9-0.2-1.5,0.4-2.7,2.3c-2.4,3.8-7.9,9.4-11.2,11.3c-9.3,5.6-17.5,1.8-21.6-9.9
		c-1.4-3.9-3-12.9-5.9-31.7c-1.2-7.9-2.3-15.1-2.5-16c-0.3-1.7-0.3-1.7-2.9-1.2c-3.2,0.5-14.3,0.6-15.1,0.1c-2.1-1.4-1.9-4.9,0.2-6
		c0.5-0.3,4.3-0.6,8.4-0.8c4.1-0.2,7.6-0.4,7.7-0.6c0.2-0.2,0-2.8-0.4-5.9l-0.7-5.6l-4.1-0.3c-5.3-0.4-10.3-1.8-11.2-3
		c-1-1.4-0.9-3.6,0.3-4.7c1.2-1.1,2.6-1.1,6.9-0.1c1.8,0.4,4.1,0.8,5,0.8c2.2,0,2.1,0.5,0.4-12.2c-1.3-9.5-1.3-9.8-0.3-11.1
		c1.2-1.7,3.3-2,4.8-0.7c1.1,0.9,1.4,2.3,2.7,12.1c0.8,6.1,1.5,11.2,1.6,11.3c0.4,0.5,4.2-0.7,7-2.4c4.3-2.7,6.6-2.4,7.6,0.9
		c0.8,2.4-4,6.1-10.2,7.9c-2.8,0.8-3.1,1-3.1,2.3c0,2,1,8.2,1.3,8.6c0.4,0.4,4.5-1.3,6.9-2.9c2.7-1.7,5-1.7,6.2,0
		c0.4,0.8,0.8,1.9,0.6,2.5c-0.2,1.7-4,4.4-8.7,6.2c-2.2,0.8-4,1.6-4.1,1.6c-0.3,0.2,5.2,35.2,6.6,41.9c3.2,15.7,8.4,18.1,17.9,8.4
		c1.8-1.9,4.1-4.9,4.9-6.6c1.8-3.6,2.2-4,4.4-4c3.2-0.1,31.4,4.4,32.6,5.2c0.9,0.5,1.3,1.6,1.8,4.7c1.6,9.4,5,18,8.1,20.7l1.7,1.4
		l1.5-1.1c4.7-3.3,18.9-22,25.6-33.6l1.5-2.5l-1.6-3.5c-3.6-8-9.7-30.9-12.2-45.7c-4.3-25.6-2.7-33.7,7.9-38.7
		c2.6-1.2,3.7-1.4,8.7-1.4c4.4,0,6.6,0.3,9.5,1.2c14.6,4.6,20.8,16.3,17.9,33.7c-2.1,12.5-6.8,25.5-15.3,42.2
		c-3,6.1-5.6,11.2-5.6,11.3c0,0.8,4.4,1.8,7.5,1.8c4.3,0,4.5,0.2,7.1,5.4c4.3,8.8,11.5,18,17.4,22.5c7.6,5.7,14.4,7.7,24.8,7.1
		c11.5-0.7,21.7-4.7,28.5-11.5c4.7-4.7,6.3-7.4,8.9-15.1c2.1-6.3,5.2-18.6,4.8-19.1c-0.1-0.1-3.7-0.6-8.1-1.1
		c-14.2-1.5-24.6-3.1-25.8-3.8c-1.6-1-1.7-4-0.2-5.4c1.1-1,1.4-1,10.5,0.2c5.1,0.6,10.1,1.4,11,1.5l1.7,0.3l-0.3-5.9
		c-0.3-7,0.3-11.1,2.6-15.8c2.1-4.2,5.7-7.3,10.3-8.7c2.2-0.6,3.2-1.2,3.2-1.8c0-0.5-0.6-3.3-1.4-6.2c-1.6-6.1-5.3-14.1-8.1-17.3
		l-1.9-2.2l-4.2,0.1c-10.8,0.1-17,3.7-26.3,15.4c-5.5,6.9-13.4,19.6-13.4,21.6c0,0.3,1.2,1,2.8,1.7c2.8,1.4,3.7,2.4,3.7,4.3
		c0,1.5-1.8,3.3-3.3,3.3c-3.5,0-11.3-5.7-14.5-10.7c-2-3.1-2.1-3.8-0.5-5.7c1.4-1.8,3.4-1.8,5.2,0c0.8,0.8,1.4,1.3,1.5,1.2
		c0.1-0.1,0.8-1.4,1.5-2.9c3.9-7.7,12.7-19.7,19.2-25.8c3.4-3.2,5.5-4.7,10-6.9c8.9-4.4,13.3-8.9,15.5-15.9c1.2-3.6,3.5-6.2,7.3-8
		c3.1-1.6,3.9-1.7,7.3-1.5c4.5,0.2,7.5,1.9,9.5,5.4c3,5.1,2.9,15-0.1,21l-1.5,2.9l3.2,2.5c10.8,8.2,20.5,32,20.6,50.6
		c0,5.8-0.1,6.7-1.3,8.7c-2.5,4.5-7.4,5.7-20.7,5.3l-7.7-0.3l-1.2,5.8c-4.9,22.6-10.6,32.4-23.2,39.7c-12.8,7.3-31.1,9.3-43.4,4.7
		c-10.4-3.9-22-15.7-29.6-29.8l-1.5-2.8l-3.4-0.3c-1.8-0.2-4.4-0.8-5.7-1.5c-1.4-0.6-2.4-1.1-2.5-1c-0.1,0.1-1.4,2.2-3,4.7
		c-12.9,20.4-25.4,34.1-30.9,34.1C103.3,3467,102,3466.7,101.1,3466.2z M146.2,3397.3c10.6-23.8,12.9-40.8,6.7-49.3
		c-3-4.2-8.9-7-15.5-7.5c-6.1-0.5-10.5,1.5-12.6,5.6c-2.2,4.3-0.6,19.8,4.1,40.3c2.1,9.2,6.1,23.4,7.5,26.8l0.9,2.2l2.7-5
		C141.4,3407.6,144.2,3401.8,146.2,3397.3z M265,3372.3c0-1.1-2.8-6.8-5.1-10.3c-2.9-4.3-7-8.2-10.7-10.1c-1.4-0.7-2.7-1.3-2.8-1.3
		s0.6,1.8,1.7,4.1c1,2.3,2.7,7.3,3.6,11.1l1.7,7h5.8C262.5,3372.8,265,3372.6,265,3372.3z M248.6,3341.8c3.4-3.7,3.6-14.1,0.3-16.7
		c-2.4-1.8-6.6-1.2-8.9,1.5c-0.5,0.6-1.5,2.5-2.1,4.3c-0.6,1.7-1.9,4.5-3,6c-1,1.6-1.9,3-1.9,3.1c0,0.2,0.9,0.3,2.1,0.3
		c1.7,0,2.3-0.3,3.5-1.8c1.6-2,2.8-5,3.3-7.9c0.2-1,0.8-2.3,1.2-2.9c1.1-1.3,3.5-1.2,4.8,0.1c1.4,1.6,0.8,6.8-1.3,11
		c-1.2,2.4-1.5,3.5-1,3.7C246.7,3343.3,247.4,3343.1,248.6,3341.8z"/>
	<path class="st0" d="M216.7,3437c-2.4-1.4-3.8-4.3-4.1-8.7c-0.3-4.4,0.4-7.1,2.4-9.5c1.7-2.1,5.3-2.3,7-0.4c2.3,2.5,3.1,4.8,3.1,9
		c0,4.8-1.4,8.1-4,9.5C219.2,3438,218.5,3438,216.7,3437z"/>
	<path class="st0" d="M185,3435.9c-2.1-2.1-2.9-4.7-2.9-9c0-4.6,1.3-7.8,3.7-9.3c2.1-1.2,3.4-1.2,5.1,0.2c4.4,3.5,5.2,13.2,1.3,17.5
		C190.2,3437.8,187.1,3438,185,3435.9z"/>
	<path class="st0" d="M107.6,3418.6c-2.8-4.3-1.2-15.1,2.4-17.1c4-2.1,6.3,2.4,5.4,9.9C114.4,3418.3,110.1,3422.3,107.6,3418.6z"/>
	<path class="st0" d="M87.9,3413.6c-1.4-1.7-1.4-1.4-0.1-5.5c1.2-3.8,1.4-8.2,0.4-9.2c-0.4-0.4-1.4-0.7-2.2-0.7
		c-1.5,0-3.3,1.4-5.9,4.8c-1.8,2.2-5,1.5-5.8-1.4c-1.2-4.1-1.8-5-3.3-5.8c-3-1.6-4.2,0.3-4.7,7.2c-0.4,5-1.2,6.6-3.7,6.6
		c-2.1,0-3.5-1.9-3.5-4.8c0-3.6,1.4-9.5,2.8-12.1c1.9-3.4,3.7-4.5,7.4-4.4c3.5,0.1,6.1,1.2,8.3,3.6c1.5,1.5,1.6,1.5,2.8,0.8
		c2.4-1.6,5.5-2.1,8.2-1.4c6.5,1.6,8.8,8.1,6.3,17.8c-0.5,2.2-1.5,4.4-2,5C91.6,3415.5,89.3,3415.3,87.9,3413.6z"/>
	<path class="st0" d="M42.5,3410.3c-2.2-1.4-2.9-7.6-1.5-12.5c2.2-7.3,7.7-8.1,8.7-1.3C50.9,3404.5,46.5,3412.8,42.5,3410.3z"/>
	<path class="st0" d="M221.2,3377.9c-2.5-1.7-1-6.2,2.2-6.2c3,0,4.4,4.2,2.1,6.1C224,3379,222.8,3379,221.2,3377.9z"/>
	<path class="st0" d="M230.1,3367.8c-1.7-2.4-0.3-5.3,2.6-5.3c2.1,0,3.6,1.4,3.6,3.4C236.3,3368.8,231.8,3370.3,230.1,3367.8z"/>
	<path class="st0" d="M217.5,3364.9c-2.3-2.3-0.8-5.6,2.5-5.6c3,0,4.3,3.8,2.2,6C220.7,3366.7,219.1,3366.6,217.5,3364.9z"/>
</g>
</svg>
